<svg width="1047" height="246" viewBox="0 0 1047 246" fill="none" xmlns="http://www.w3.org/2000/svg">
<path d="M119.233 104.8V209.6L82.8335 209.067C43.2335 208.667 43.9001 208.8 39.5001 200.8C37.5001 197.2 37.2335 191.6 37.3668 152.667C37.5001 115.067 37.7668 108.133 39.6335 104.533C43.6335 96.6668 43.7668 96.6668 76.1668 96.2668L105.9 95.8668V78.4002V61.0668L72.9668 61.6002C42.7001 62.1335 39.2335 62.4002 32.4335 65.2002C16.7001 71.3335 7.7668 80.8002 2.9668 96.5335C0.166799 105.467 0.0334657 108.667 0.0334657 152.667C-0.0998677 197.467 0.0334656 199.733 2.9668 208.933C8.03347 225.2 18.8335 236 35.1001 241.067C41.7668 243.067 49.6335 243.333 110.567 243.333H178.567L178.967 226.4L179.367 209.467L167.633 209.067L155.9 208.667L155.5 121.6L155.233 34.6668H167.233H179.233V17.3335V0.00015007H149.233H119.233V104.8Z" fill="#9810FA"/>
<path d="M598.7 6.93357C588.034 44.5336 553.9 164.667 549.9 178.667C546.967 188.534 541.9 206.4 538.567 218.267C535.367 230 532.167 240.667 531.767 241.867C531.1 243.734 533.234 244 550.967 244H571.1L572.3 239.6C575.234 229.6 585.1 195.334 589.9 178.667C596.434 156 632.7 28.2669 636.567 14.0002C638.167 8.2669 639.767 2.6669 640.167 1.73356C640.7 0.400231 636.7 0.000231415 620.7 0.000231415H600.7L598.7 6.93357Z" fill="#9810FA"/>
<path d="M817.9 17.3336V34.6669H829.633H841.233L840.967 121.6L840.7 208.667L829.233 209.067L817.9 209.467V226.667V244H882.3C923.1 244 949.633 243.467 954.567 242.534C970.433 239.6 984.167 230.134 990.433 217.6C996.3 206 996.833 199.867 996.3 148.667C995.9 102.4 995.767 100.4 992.833 93.2002C988.567 82.6669 983.367 75.8669 975.367 70.8002C963.5 63.0669 959.1 62.4002 923.633 61.6002L891.233 61.0669V78.5336V96.0002H918.567C949.1 96.0002 953.5 96.9336 957.1 103.867C960.033 109.467 960.3 193.6 957.367 200.667C954.033 208.4 952.967 208.667 913.367 208.667H877.5L877.233 119.334C877.1 70.1336 876.833 23.2002 876.7 14.9336L876.567 0.000231415H847.233H817.9V17.3336Z" fill="#9810FA"/>
<path d="M240.567 62.8002C224.433 65.4669 211.1 75.6002 204.033 90.5335L199.9 99.3335V152C199.9 203.867 199.9 204.8 202.967 212.267C209.5 228.4 224.833 239.867 243.9 242.667C249.233 243.467 269.633 243.867 291.767 243.734L330.167 243.334L334.7 227.334C337.1 218.534 339.1 210.934 339.233 210.4C339.233 210 318.967 209.334 294.3 209.067C253.1 208.667 248.833 208.4 245.1 206.134C238.567 202.267 237.367 199.2 236.833 184.934L236.3 172H296.567H356.7L356.3 136.267C355.767 102.4 355.633 100.267 352.567 92.9335C346.033 76.6669 331.5 65.7335 312.967 62.8002C301.767 61.0669 251.233 61.0669 240.567 62.8002ZM311.233 98.4002C318.033 101.734 319.233 105.2 319.233 122.934V138.667H277.9H236.567V122.934C236.567 106 238.567 100 244.967 97.3335C246.567 96.6669 261.1 96.1335 277.233 96.1335C302.567 96.0002 307.233 96.2669 311.233 98.4002Z" fill="#9810FA"/>
<path d="M664.567 66.9335C661.233 80.1335 658.033 91.4669 657.233 93.6002C656.433 95.7335 659.767 95.8669 703.633 96.2669C761.767 96.8002 758.433 95.3335 759.367 120L759.9 132.667L717.9 133.334C677.767 134 675.5 134.267 668.033 137.2C650.3 144.267 642.033 158.267 640.833 183.067C639.367 214.667 648.033 231.6 669.9 240.267C676.567 242.934 680.033 243.2 710.7 243.734C731.233 244 747.1 243.734 751.9 242.8C769.633 239.467 785.1 228 792.033 212.934L795.9 204.667L796.3 152.8C796.567 108.534 796.3 99.8669 794.567 93.7335C790.433 79.7335 782.033 70.5335 768.167 64.9335C761.633 62.2669 758.433 62.0002 713.633 61.6002L666.033 61.0669L664.567 66.9335ZM758.967 182.667C758.567 198.4 758.567 198.667 754.567 202.667C751.767 205.467 748.433 207.067 743.367 208C733.367 209.867 693.1 209.6 687.233 207.6C680.7 205.334 677.9 199.2 677.9 187.6C677.9 177.334 680.433 170.4 684.967 168.267C686.833 167.334 701.367 166.8 723.633 166.8L759.5 166.667L758.967 182.667Z" fill="#9810FA"/>
<path d="M383.233 90.9335C387.5 105.867 392.433 123.333 394.3 130C397.233 140 411.9 191.467 423.767 233.333L426.7 243.333L457.633 243.733C474.7 243.867 488.567 243.733 488.567 243.333C488.567 242.8 492.167 230.133 496.567 214.933C509.767 168.933 539.233 65.2001 539.233 64.5335C539.233 64.2668 530.567 64.0001 520.033 64.0001H500.833L498.7 70.2668C497.633 73.8668 488.167 106.4 477.9 142.667C467.633 178.933 458.567 209.2 458.033 209.733C456.433 211.333 455.9 210.267 451.9 195.333C449.9 188 446.033 174.133 443.233 164.667C440.433 155.067 432.833 128.533 426.433 105.6L414.567 64.0001H395.1H375.633L383.233 90.9335Z" fill="#9810FA"/>
<path d="M1009.9 228.133C1009.9 228.933 1011.1 229.867 1012.57 230.267C1014.83 230.933 1015.23 232.133 1015.23 238.133C1015.23 243.6 1015.77 245.333 1017.23 245.333C1018.83 245.333 1019.23 243.6 1019.23 238C1019.23 232.667 1019.77 230.667 1021.1 230.667C1022.03 230.667 1023.63 229.733 1024.57 228.667C1026.03 226.933 1025.23 226.667 1018.03 226.667C1013.1 226.667 1009.9 227.2 1009.9 228.133Z" fill="#9810FA"/>
<path d="M1027.23 236C1027.23 243.2 1027.63 245.333 1029.1 245.333C1030.57 245.333 1030.83 244.133 1030.43 240.267L1029.77 235.333L1032.83 238.933C1036.97 243.733 1038.57 243.6 1040.7 238.267L1042.3 234L1043.1 239.067C1044.3 246.933 1046.57 244.933 1046.57 235.733C1046.57 225.867 1044.43 224.4 1040.43 231.2C1038.97 233.867 1037.23 236 1036.7 236C1036.17 236 1034.7 233.867 1033.5 231.333C1029.77 223.333 1027.23 225.2 1027.23 236Z" fill="#9810FA"/>
</svg>
